<svg xmlns="http://www.w3.org/2000/svg" viewBox="0 0 440.96 242.46"><defs><style>.cls-1{fill:#ecf5fe;}</style></defs><title>shape_path</title><g id="Layer_2" data-name="Layer 2"><g id="Shape"><path class="cls-1" d="M441,141.53c0-11.12-9.45-20.22-21-20.22H316.62c-11.55,0-21-9.1-21-20.22s9.45-20.22,21-20.22h37c11.55,0,21-9.1,21-20.22s-9.45-20.22-21-20.22H303.54c-11.55,0-21-9.1-21-20.22S273.09,0,261.54,0H146.34c-11.55,0-21,9.1-21,20.22s-9.45,20.22-21,20.22H78.76c-11.55,0-21,9.1-21,20.22a20.16,20.16,0,0,0,20,20.22,20.16,20.16,0,0,1,20,20.22c0,11.12-9.45,20.22-21,20.22H21c-11.55,0-21,9.1-21,20.22s9.45,20.22,21,20.22H47.31c11.55,0,21,9.06,21,20.14S58.86,202,47.31,202H26.09c-11.55,0-21,9.1-21,20.22s9.45,20.22,21,20.22H312.41c11.55,0,21-9.1,21-20.22s9.45-20.22,21-20.22h21.22c11.55,0,21-9.06,21-20.14s9.45-20.14,21-20.14H420C431.5,161.74,441,152.65,441,141.53Z"/></g></g></svg>